<svg xmlns="http://www.w3.org/2000/svg" xmlns:xlink="http://www.w3.org/1999/xlink" viewBox="0,0,256,256" width="32px" height="32px" fill-rule="nonzero"><g fill="#f58220" fill-rule="nonzero" stroke="none" stroke-width="1" stroke-linecap="butt" stroke-linejoin="miter" stroke-miterlimit="10" stroke-dasharray="" stroke-dashoffset="0" font-family="none" font-weight="none" font-size="none" text-anchor="none" style="mix-blend-mode: normal"><g transform="scale(8,8)"><path d="M8.21875,5l-0.15625,0.8125l-0.5,2.875l-0.21875,1.1875h14.125l-0.3125,1.8125h-14.125l-0.15625,0.8125l-0.5,2.875l-0.21875,1.15625h14.125l-0.71875,4.0625l-5.21875,2.40625l-4.09375,-2.25l0.21875,-1.21875l0.21875,-1.15625h-4.875l-0.125,0.8125l-0.6875,3.8125l-0.15625,0.75l0.6875,0.34375l7.8125,3.8125l0.40625,0.1875l0.40625,-0.15625l9.15625,-3.84375l0.5,-0.1875l0.125,-0.5625l3.0625,-17.15625l0.21875,-1.1875zM9.875,7h14.9375l-2.75,15.46875l-8.28125,3.40625l-6.6875,-3.25l0.40625,-2.25h0.78125l-0.25,1.4375l0.625,0.34375l5.15625,2.84375l0.4375,0.25l0.46875,-0.21875l6.15625,-2.84375l0.46875,-0.21875l0.09375,-0.53125l1.03125,-5.71875l0.21875,-1.1875h-14.125l0.125,-0.84375h14.15625l0.125,-0.84375l0.6875,-3.8125l0.21875,-1.15625h-14.125z"></path></g></g></svg>