<svg xmlns="http://www.w3.org/2000/svg" xmlns:xlink="http://www.w3.org/1999/xlink" viewBox="0,0,256,256" width="48px" height="48px" fill-rule="nonzero"><g fill="none" fill-rule="nonzero" stroke="none" stroke-width="1" stroke-linecap="butt" stroke-linejoin="miter" stroke-miterlimit="10" stroke-dasharray="" stroke-dashoffset="0" font-family="none" font-weight="none" font-size="none" text-anchor="none" style="mix-blend-mode: normal"><g transform="scale(5.33333,5.33333)"><path d="M8,5h34l-4,34l-13,4l-14,-4z" fill="#f58220"></path><path d="M38.63,8l-3.38,28.71l-10.25,3.15v-31.86z" fill="#f2bf22"></path><path d="M25,21l1,2l-1,2h-9.21l0.85,-13h8.36l1,2l-1,2h-3.97l-0.33,5z" fill="#faf9f8"></path><path d="M24.9,32.57l0.1,-0.03l1,2.46l-1,1.72l-0.06,0.02l-8.33,-2.38l-0.56,-6.36h4.02l0.28,3.27z" fill="#ebebeb"></path><path d="M34.07,21l-1.57,13.42l-7.5,2.3v-4.18l3.83,-1.18l0.74,-6.36h-4.57v-4z" fill="#ffffff"></path><path d="M34.92,18h-3.99l-0.26,-2h-5.67v-4h9.13l0.17,1.26z" fill="#ffffff"></path></g></g></svg>